<svg width="44" height="44" viewBox="0 0 34 36" fill="none" xmlns="http://www.w3.org/2000/svg">
<path fill-rule="evenodd" clip-rule="evenodd" d="M17.2288 0.362106C16.4365 0.0809892 15.5957 0.0821227 14.6457 0.0833894C12.1028 0.0833561 9.75683 0.083506 8.12557 0.274956C6.43775 0.473039 4.99158 0.894723 3.76653 1.88757C3.31687 2.25202 2.90725 2.66377 2.54468 3.11579C1.55697 4.34721 1.13747 5.80089 0.940401 7.49749C0.749951 9.13721 0.749968 11.1982 0.750001 13.7542V21.3768C0.749968 24.3468 0.749934 26.7407 1.00175 28.6235C1.2632 30.5782 1.82253 32.2242 3.12295 33.5313C4.42337 34.8385 6.06072 35.4007 8.00537 35.6635C9.87843 35.9167 12.497 35.9167 15.4517 35.9165C18.4063 35.9167 20.7878 35.9167 22.6608 35.6635C24.6055 35.4007 26.2428 34.8385 27.5433 33.5313C27.7137 33.36 27.8715 33.1828 28.0173 32.9998H8.66667C6.82572 32.9998 5.33333 31.5075 5.33333 29.6665V21.3332C5.33333 19.4923 6.82572 17.9998 8.66667 17.9998H29.9163L29.9165 15.5863C29.9182 14.4807 29.9197 13.4994 29.5462 12.5932C29.1727 11.6869 28.4815 10.9941 27.7025 10.2135L19.7312 2.20077C19.0603 1.52471 18.4665 0.926256 17.7085 0.561806C17.5523 0.486689 17.3922 0.420039 17.2288 0.362106ZM25.2518 12.3572C26.282 13.3927 26.4577 13.61 26.5523 13.8397C24.273 13.8398 23.192 13.8385 21.7472 13.6442C20.2468 13.4425 18.9838 13.011 17.9807 12.0078C16.9773 11.0046 16.5458 9.74151 16.3442 8.24132C16.1503 6.79934 16.1503 5.71981 16.1503 3.45004V3.43609C16.4532 3.52724 16.6888 3.74961 17.577 4.64246L25.2518 12.3572ZM8.66667 20.0832C7.97632 20.0832 7.41667 20.6428 7.41667 21.3332V29.6665C7.41667 30.357 7.97632 30.9165 8.66667 30.9165C9.35702 30.9165 9.91667 30.357 9.91667 29.6665V27.5832H11.1667C13.2377 27.5832 14.9167 25.9043 14.9167 23.8332C14.9167 21.7622 13.2377 20.0832 11.1667 20.0832H8.66667ZM11.1667 25.0832H9.91667V22.5832H11.1667C11.857 22.5832 12.4167 23.1428 12.4167 23.8332C12.4167 24.5237 11.857 25.0832 11.1667 25.0832ZM17.8333 20.0832C17.143 20.0832 16.5833 20.6428 16.5833 21.3332V29.6665C16.5833 30.357 17.143 30.9165 17.8333 30.9165H19.9762C22.211 30.9165 24.0833 29.1462 24.0833 26.8888V24.111C24.0833 21.8535 22.211 20.0832 19.9762 20.0832H17.8333ZM19.0833 28.4165V22.5832H19.9762C20.8972 22.5832 21.5833 23.3002 21.5833 24.111V26.8888C21.5833 27.6997 20.8972 28.4165 19.9762 28.4165H19.0833ZM28.6667 20.0832C27.0558 20.0832 25.75 21.389 25.75 22.9998V29.6665C25.75 30.357 26.3097 30.9165 27 30.9165C27.6903 30.9165 28.25 30.357 28.25 29.6665V26.7498H31.1667C31.857 26.7498 32.4167 26.1903 32.4167 25.4998C32.4167 24.8095 31.857 24.2498 31.1667 24.2498H28.25V22.9998C28.25 22.7698 28.4365 22.5832 28.6667 22.5832H32C32.6903 22.5832 33.25 22.0237 33.25 21.3332C33.25 20.6428 32.6903 20.0832 32 20.0832H28.6667Z" fill="#F04438"/>
</svg>
