<svg width="44" height="44" viewBox="0 0 40 40" fill="none" xmlns="http://www.w3.org/2000/svg">
<path fill-rule="evenodd" clip-rule="evenodd" d="M12.6165 22.3094C13.1821 21.9135 13.9615 22.051 14.3574 22.6165L16.25 25.3204L18.1427 22.6165C18.5385 22.051 19.318 21.9135 19.8835 22.3094C20.449 22.7054 20.5867 23.4847 20.1907 24.0502L17.7759 27.5L20.1907 30.9499C20.5867 31.5155 20.449 32.2949 19.8835 32.6909C19.318 33.0867 18.5385 32.9492 18.1427 32.3835L16.25 29.6799L14.3574 32.3835C13.9615 32.9492 13.1821 33.0867 12.6165 32.6909C12.051 32.2949 11.9134 31.5155 12.3093 30.9499L14.7242 27.5L12.3093 24.0502C11.9134 23.4847 12.051 22.7054 12.6165 22.3094ZM23.3334 22.0834C24.0237 22.0834 24.5834 22.643 24.5834 23.3334V30.4167H27.5C28.1904 30.4167 28.75 30.9764 28.75 31.6667C28.75 32.3572 28.1904 32.9167 27.5 32.9167H23.3334C22.643 32.9167 22.0834 32.3572 22.0834 31.6667V23.3334C22.0834 22.643 22.643 22.0834 23.3334 22.0834ZM29.5834 23.3334C29.5834 22.643 30.143 22.0834 30.8334 22.0834H35C35.6904 22.0834 36.25 22.643 36.25 23.3334C36.25 24.0239 35.6904 24.5834 35 24.5834H32.0834V26.25H35C35.6904 26.25 36.25 26.8097 36.25 27.5V31.6667C36.25 32.3572 35.6904 32.9167 35 32.9167H30.8334C30.143 32.9167 29.5834 32.3572 29.5834 31.6667C29.5834 30.9764 30.143 30.4167 30.8334 30.4167H33.75V28.75H30.8334C30.143 28.75 29.5834 28.1905 29.5834 27.5V23.3334Z" fill="#2B8358"/>
<path fill-rule="evenodd" clip-rule="evenodd" d="M3.79046 33.0383C3.79464 35.7338 5.97019 37.9167 8.65241 37.9167H28.0547C30.0427 37.9167 31.752 36.7177 32.5055 35H13.2869C12.6412 34.9915 11.991 34.7957 11.4221 34.3975C9.91392 33.3417 9.54714 31.2633 10.6029 29.7552L12.1814 27.5L10.6029 25.2448C9.54714 23.7367 9.91392 21.6583 11.4221 20.6025C11.991 20.2043 12.6412 20.0085 13.2869 20H32.9167V15.0916C32.9167 14.6591 32.7455 14.2443 32.4408 13.9388L21.094 2.55919C20.7902 2.25448 20.3785 2.08334 19.9492 2.08334H8.61196C5.92382 2.08334 3.74582 4.27554 3.75001 6.97699L3.79046 33.0383ZM19.2788 5.34324L29.6738 15.7682H21.7788C20.3982 15.7682 19.2788 14.6489 19.2788 13.2682V5.34324Z" fill="#2B8358"/>
</svg>
